<svg width="213" height="23" viewBox="0 0 213 23" fill="none" xmlns="http://www.w3.org/2000/svg">
<path d="M20.9408 1.12596H37.1541C37.1541 1.12596 37.8684 5.74384 31.4363 7.95854C32.4697 6.60205 32.4366 4.64602 32.4366 4.64602H20.5937C9.38584 4.64602 1.12369 19.7699 0 21.725C0 21.725 3.98209 10.0249 12.0817 4.23997C13.7612 3.03888 17.3891 1.12596 20.9408 1.12596Z" fill="#C89633"/>
<path fill-rule="evenodd" clip-rule="evenodd" d="M22.9792 9.11858C22.9591 9.50658 22.8748 10.6124 22.3471 11.5909L22.3401 11.5919V11.598C27.6305 11.1368 30.1839 9.54768 31.3918 7.97363C29.3692 8.66541 26.6513 9.11858 22.9792 9.11858Z" fill="#C89633"/>
<path d="M15.8866 11.6851C18.0086 11.7332 19.1554 11.7473 19.1554 11.7473C20.3262 11.7693 21.3867 11.6821 22.3659 11.5919C21.5643 13.2983 19.5697 15.0428 14.168 14.9405C7.20008 14.8092 3.35745 18.629 1.39099 20.6803L1.40064 20.6655C3.3706 17.6503 7.39556 11.4899 15.8866 11.6851Z" fill="white"/>
<path d="M210.113 12.6791V11.0617L209.959 10.7074V7.81139C209.959 7.29792 209.8 6.89741 209.482 6.60986C209.174 6.32232 208.696 6.17854 208.049 6.17854C207.608 6.17854 207.171 6.25043 206.74 6.3942C206.319 6.52771 205.959 6.71256 205.661 6.94876L204.799 5.26969C205.251 4.95134 205.795 4.70487 206.432 4.53029C207.068 4.35571 207.715 4.26842 208.373 4.26842C209.636 4.26842 210.616 4.56623 211.315 5.16186C212.013 5.75749 212.362 6.68688 212.362 7.95003V12.6791H210.113ZM207.587 12.8024C206.94 12.8024 206.385 12.6945 205.923 12.4789C205.461 12.253 205.107 11.95 204.86 11.57C204.614 11.1901 204.491 10.7639 204.491 10.2915C204.491 9.79854 204.609 9.36722 204.845 8.99752C205.091 8.62782 205.477 8.34027 206 8.13488C206.524 7.91922 207.207 7.81139 208.049 7.81139H210.252V9.21318H208.311C207.746 9.21318 207.356 9.30561 207.14 9.49046C206.935 9.67531 206.832 9.90637 206.832 10.1836C206.832 10.4917 206.95 10.7382 207.186 10.9231C207.433 11.0976 207.767 11.1849 208.188 11.1849C208.588 11.1849 208.948 11.0925 209.266 10.9076C209.584 10.7125 209.815 10.4301 209.959 10.0604L210.329 11.1695C210.154 11.7035 209.836 12.1092 209.374 12.3865C208.912 12.6637 208.316 12.8024 207.587 12.8024Z" fill="white"/>
<path d="M198.343 12.6791L194.862 4.39166H197.342L200.238 11.5238H199.006L202.01 4.39166H204.32L200.823 12.6791H198.343Z" fill="white"/>
<path d="M191.461 12.6791V4.39166H193.864V12.6791H191.461ZM192.662 3.23634C192.221 3.23634 191.861 3.10797 191.584 2.85123C191.307 2.5945 191.168 2.27614 191.168 1.89617C191.168 1.5162 191.307 1.19784 191.584 0.941107C191.861 0.684369 192.221 0.556 192.662 0.556C193.104 0.556 193.463 0.679234 193.741 0.925702C194.018 1.1619 194.157 1.46999 194.157 1.84996C194.157 2.25047 194.018 2.58423 193.741 2.85123C193.474 3.10797 193.114 3.23634 192.662 3.23634Z" fill="white"/>
<path d="M188.156 12.8024C187.18 12.8024 186.42 12.5559 185.876 12.063C185.331 11.5598 185.059 10.8152 185.059 9.82935V2.55855H187.462V9.79854C187.462 10.1477 187.555 10.4198 187.74 10.615C187.925 10.7998 188.176 10.8922 188.494 10.8922C188.874 10.8922 189.198 10.7896 189.465 10.5842L190.112 12.2786C189.865 12.4532 189.568 12.5867 189.218 12.6791C188.88 12.7613 188.525 12.8024 188.156 12.8024ZM183.781 6.42501V4.5765H189.527V6.42501H183.781Z" fill="white"/>
<path d="M179.162 12.8024C178.217 12.8024 177.385 12.6175 176.666 12.2478C175.958 11.8781 175.408 11.3749 175.018 10.7382C174.628 10.0912 174.433 9.35695 174.433 8.53539C174.433 7.70356 174.623 6.9693 175.003 6.33259C175.393 5.68561 175.922 5.1824 176.589 4.82297C177.257 4.45327 178.012 4.26842 178.854 4.26842C179.665 4.26842 180.394 4.443 181.041 4.79216C181.698 5.13106 182.217 5.62399 182.597 6.27097C182.977 6.90768 183.167 7.67276 183.167 8.5662C183.167 8.65863 183.162 8.76646 183.151 8.88969C183.141 9.00266 183.131 9.11049 183.121 9.21318H176.389V7.81139H181.857L180.933 8.22731C180.933 7.79599 180.846 7.42115 180.671 7.1028C180.497 6.78444 180.255 6.53798 179.947 6.36339C179.639 6.17854 179.28 6.08612 178.869 6.08612C178.458 6.08612 178.094 6.17854 177.775 6.36339C177.467 6.53798 177.226 6.78958 177.051 7.1182C176.877 7.43656 176.789 7.81653 176.789 8.25812V8.62782C176.789 9.07968 176.887 9.48019 177.082 9.82935C177.288 10.1682 177.57 10.4301 177.929 10.615C178.299 10.7895 178.73 10.8768 179.223 10.8768C179.665 10.8768 180.05 10.8101 180.379 10.6766C180.718 10.5431 181.026 10.3428 181.303 10.0758L182.581 11.4622C182.201 11.8935 181.724 12.2273 181.149 12.4635C180.574 12.6894 179.911 12.8024 179.162 12.8024Z" fill="white"/>
<path d="M170.415 12.6791V1.24918H172.818V12.6791H170.415Z" fill="white"/>
<path d="M164.265 12.8024C163.382 12.8024 162.596 12.6175 161.908 12.2478C161.23 11.8781 160.691 11.3749 160.291 10.7382C159.9 10.0912 159.705 9.35695 159.705 8.53539C159.705 7.70356 159.9 6.9693 160.291 6.33259C160.691 5.68561 161.23 5.1824 161.908 4.82297C162.596 4.45327 163.382 4.26842 164.265 4.26842C165.138 4.26842 165.918 4.45327 166.606 4.82297C167.294 5.1824 167.834 5.68047 168.224 6.31718C168.614 6.95389 168.809 7.69329 168.809 8.53539C168.809 9.35695 168.614 10.0912 168.224 10.7382C167.834 11.3749 167.294 11.8781 166.606 12.2478C165.918 12.6175 165.138 12.8024 164.265 12.8024ZM164.265 10.8306C164.665 10.8306 165.025 10.7382 165.343 10.5533C165.662 10.3685 165.913 10.1066 166.098 9.76773C166.283 9.41857 166.375 9.00779 166.375 8.53539C166.375 8.05273 166.283 7.64195 166.098 7.30305C165.913 6.96416 165.662 6.70229 165.343 6.51744C165.025 6.33259 164.665 6.24016 164.265 6.24016C163.864 6.24016 163.505 6.33259 163.187 6.51744C162.868 6.70229 162.612 6.96416 162.416 7.30305C162.232 7.64195 162.139 8.05273 162.139 8.53539C162.139 9.00779 162.232 9.41857 162.416 9.76773C162.612 10.1066 162.868 10.3685 163.187 10.5533C163.505 10.7382 163.864 10.8306 164.265 10.8306Z" fill="white"/>
<path d="M154.64 12.864C153.808 12.864 153.033 12.7305 152.314 12.4635C151.605 12.1862 150.989 11.796 150.465 11.2927C149.941 10.7895 149.531 10.199 149.233 9.52126C148.945 8.84347 148.802 8.09893 148.802 7.28764C148.802 6.47635 148.945 5.73181 149.233 5.05402C149.531 4.37624 149.941 3.78574 150.465 3.28254C150.999 2.77933 151.62 2.39422 152.329 2.12722C153.038 1.84994 153.813 1.7113 154.655 1.7113C155.59 1.7113 156.432 1.87562 157.181 2.20424C157.941 2.52259 158.578 2.99499 159.092 3.62143L157.49 5.10024C157.12 4.67919 156.709 4.36597 156.257 4.16058C155.805 3.94492 155.312 3.83709 154.778 3.83709C154.275 3.83709 153.813 3.91925 153.392 4.08356C152.971 4.24787 152.606 4.48407 152.298 4.79215C151.99 5.10024 151.749 5.4648 151.574 5.88585C151.41 6.3069 151.328 6.77417 151.328 7.28764C151.328 7.80112 151.41 8.26838 151.574 8.68943C151.749 9.11048 151.99 9.47504 152.298 9.78313C152.606 10.0912 152.971 10.3274 153.392 10.4917C153.813 10.656 154.275 10.7382 154.778 10.7382C155.312 10.7382 155.805 10.6355 156.257 10.4301C156.709 10.2144 157.12 9.89096 157.49 9.45964L159.092 10.9384C158.578 11.5649 157.941 12.0424 157.181 12.371C156.432 12.6997 155.585 12.864 154.64 12.864Z" fill="white"/>
<path d="M138.797 12.8024C137.914 12.8024 137.128 12.6175 136.44 12.2478C135.762 11.8781 135.223 11.3749 134.823 10.7382C134.432 10.0912 134.237 9.35695 134.237 8.53539C134.237 7.70356 134.432 6.9693 134.823 6.33259C135.223 5.68561 135.762 5.1824 136.44 4.82297C137.128 4.45327 137.914 4.26842 138.797 4.26842C139.67 4.26842 140.45 4.45327 141.138 4.82297C141.826 5.1824 142.365 5.68047 142.756 6.31718C143.146 6.95389 143.341 7.69329 143.341 8.53539C143.341 9.35695 143.146 10.0912 142.756 10.7382C142.365 11.3749 141.826 11.8781 141.138 12.2478C140.45 12.6175 139.67 12.8024 138.797 12.8024ZM138.797 10.8306C139.197 10.8306 139.557 10.7382 139.875 10.5533C140.193 10.3685 140.445 10.1066 140.63 9.76773C140.815 9.41857 140.907 9.00779 140.907 8.53539C140.907 8.05273 140.815 7.64195 140.63 7.30305C140.445 6.96416 140.193 6.70229 139.875 6.51744C139.557 6.33259 139.197 6.24016 138.797 6.24016C138.396 6.24016 138.037 6.33259 137.719 6.51744C137.4 6.70229 137.143 6.96416 136.948 7.30305C136.763 7.64195 136.671 8.05273 136.671 8.53539C136.671 9.00779 136.763 9.41857 136.948 9.76773C137.143 10.1066 137.4 10.3685 137.719 10.5533C138.037 10.7382 138.396 10.8306 138.797 10.8306Z" fill="white"/>
<path d="M130.369 12.6791V11.0617L130.215 10.7074V7.8114C130.215 7.29793 130.056 6.89742 129.738 6.60987C129.429 6.32232 128.952 6.17855 128.305 6.17855C127.863 6.17855 127.427 6.25044 126.996 6.39421C126.575 6.52771 126.215 6.71256 125.917 6.94876L125.055 5.2697C125.507 4.95135 126.051 4.70488 126.688 4.5303C127.324 4.35571 127.971 4.26842 128.628 4.26842C129.892 4.26842 130.872 4.56624 131.571 5.16187C132.269 5.7575 132.618 6.68689 132.618 7.95004V12.6791H130.369ZM127.843 12.8024C127.196 12.8024 126.641 12.6945 126.179 12.4789C125.717 12.253 125.363 11.95 125.116 11.57C124.87 11.1901 124.747 10.7639 124.747 10.2915C124.747 9.79855 124.865 9.36723 125.101 8.99753C125.347 8.62783 125.732 8.34028 126.256 8.13489C126.78 7.91923 127.463 7.8114 128.305 7.8114H130.508V9.21319H128.567C128.002 9.21319 127.612 9.30561 127.396 9.49046C127.191 9.67532 127.088 9.90638 127.088 10.1837C127.088 10.4917 127.206 10.7382 127.442 10.9231C127.689 11.0976 128.023 11.1849 128.444 11.1849C128.844 11.1849 129.204 11.0925 129.522 10.9077C129.84 10.7125 130.071 10.4301 130.215 10.0604L130.585 11.1695C130.41 11.7035 130.092 12.1092 129.63 12.3865C129.168 12.6637 128.572 12.8024 127.843 12.8024ZM130.03 3.37498C129.763 3.37498 129.527 3.32876 129.322 3.23634C129.116 3.13364 128.931 3.02068 128.767 2.89745C128.603 2.76394 128.449 2.65098 128.305 2.55855C128.161 2.45586 128.017 2.40451 127.874 2.40451C127.668 2.40451 127.499 2.48153 127.365 2.63557C127.232 2.77935 127.155 2.98987 127.134 3.26715H125.917C125.938 2.57909 126.107 2.03481 126.426 1.6343C126.744 1.22352 127.175 1.01813 127.72 1.01813C127.987 1.01813 128.223 1.06947 128.428 1.17217C128.634 1.2646 128.818 1.37756 128.983 1.51106C129.157 1.64457 129.317 1.76267 129.46 1.86536C129.604 1.95779 129.743 2.004 129.876 2.004C130.092 2.004 130.266 1.93211 130.4 1.78834C130.533 1.6343 130.605 1.42891 130.616 1.17217H131.833C131.822 1.82942 131.653 2.36343 131.324 2.77421C131.006 3.17472 130.575 3.37498 130.03 3.37498Z" fill="white"/>
<path d="M120.19 12.8024C119.296 12.8024 118.5 12.6227 117.802 12.2632C117.104 11.8935 116.554 11.3852 116.154 10.7382C115.764 10.0912 115.568 9.35695 115.568 8.53539C115.568 7.70356 115.764 6.9693 116.154 6.33259C116.554 5.68561 117.104 5.1824 117.802 4.82297C118.5 4.45327 119.296 4.26842 120.19 4.26842C121.063 4.26842 121.823 4.45327 122.47 4.82297C123.117 5.1824 123.594 5.70101 123.902 6.3788L122.038 7.38008C121.823 6.98983 121.55 6.70229 121.222 6.51744C120.903 6.33259 120.554 6.24016 120.174 6.24016C119.764 6.24016 119.394 6.33259 119.065 6.51744C118.737 6.70229 118.475 6.96416 118.28 7.30305C118.095 7.64195 118.002 8.05273 118.002 8.53539C118.002 9.01806 118.095 9.42884 118.28 9.76773C118.475 10.1066 118.737 10.3685 119.065 10.5534C119.394 10.7382 119.764 10.8306 120.174 10.8306C120.554 10.8306 120.903 10.7433 121.222 10.5688C121.55 10.3839 121.823 10.0912 122.038 9.69071L123.902 10.7074C123.594 11.3749 123.117 11.8935 122.47 12.2632C121.823 12.6227 121.063 12.8024 120.19 12.8024ZM119.312 16.2529C119.045 16.2529 118.783 16.2221 118.526 16.1605C118.28 16.0989 118.064 16.0219 117.879 15.9294L118.249 14.8973C118.403 14.9692 118.562 15.0257 118.726 15.0668C118.891 15.1079 119.065 15.1284 119.25 15.1284C119.538 15.1284 119.743 15.0822 119.866 14.9898C119.99 14.8973 120.051 14.7792 120.051 14.6355C120.051 14.502 119.99 14.3941 119.866 14.312C119.753 14.2298 119.563 14.1888 119.296 14.1888H118.773L119.173 12.5559H120.452L120.236 13.4493C120.698 13.5007 121.037 13.6445 121.253 13.8807C121.468 14.1271 121.576 14.4095 121.576 14.7279C121.576 15.19 121.371 15.5597 120.96 15.837C120.549 16.1143 120 16.2529 119.312 16.2529Z" fill="white"/>
<path d="M111.701 12.6791V11.0617L111.547 10.7074V7.81139C111.547 7.29792 111.387 6.89741 111.069 6.60986C110.761 6.32232 110.283 6.17854 109.636 6.17854C109.195 6.17854 108.758 6.25043 108.327 6.3942C107.906 6.52771 107.547 6.71256 107.249 6.94876L106.386 5.26969C106.838 4.95134 107.382 4.70487 108.019 4.53029C108.656 4.35571 109.303 4.26842 109.96 4.26842C111.223 4.26842 112.204 4.56623 112.902 5.16186C113.6 5.75749 113.95 6.68688 113.95 7.95003V12.6791H111.701ZM109.174 12.8024C108.527 12.8024 107.973 12.6945 107.511 12.4789C107.048 12.253 106.694 11.95 106.448 11.57C106.201 11.1901 106.078 10.7639 106.078 10.2915C106.078 9.79854 106.196 9.36722 106.432 8.99752C106.679 8.62782 107.064 8.34027 107.588 8.13488C108.111 7.91922 108.794 7.81139 109.636 7.81139H111.839V9.21318H109.898C109.333 9.21318 108.943 9.30561 108.728 9.49046C108.522 9.67531 108.419 9.90637 108.419 10.1836C108.419 10.4917 108.538 10.7382 108.774 10.9231C109.02 11.0976 109.354 11.1849 109.775 11.1849C110.176 11.1849 110.535 11.0925 110.853 10.9076C111.172 10.7125 111.403 10.4301 111.547 10.0604L111.916 11.1695C111.742 11.7035 111.423 12.1092 110.961 12.3865C110.499 12.6637 109.903 12.8024 109.174 12.8024Z" fill="white"/>
<path d="M101.984 12.6791V4.39166H104.387V12.6791H101.984ZM103.185 3.23634C102.744 3.23634 102.384 3.10797 102.107 2.85123C101.83 2.5945 101.691 2.27614 101.691 1.89617C101.691 1.5162 101.83 1.19784 102.107 0.941107C102.384 0.684369 102.744 0.556 103.185 0.556C103.627 0.556 103.986 0.679234 104.264 0.925702C104.541 1.1619 104.68 1.46999 104.68 1.84996C104.68 2.25047 104.541 2.58423 104.264 2.85123C103.997 3.10797 103.637 3.23634 103.185 3.23634Z" fill="white"/>
<path d="M96.933 12.8024C96.0396 12.8024 95.2437 12.6227 94.5454 12.2632C93.8471 11.8935 93.2976 11.3852 92.8971 10.7382C92.5069 10.0912 92.3118 9.35695 92.3118 8.53539C92.3118 7.70356 92.5069 6.9693 92.8971 6.33259C93.2976 5.68561 93.8471 5.1824 94.5454 4.82297C95.2437 4.45327 96.0396 4.26842 96.933 4.26842C97.806 4.26842 98.5659 4.45327 99.2129 4.82297C99.8599 5.1824 100.337 5.70101 100.645 6.3788L98.7816 7.38007C98.5659 6.98983 98.2938 6.70229 97.9651 6.51744C97.6468 6.33259 97.2976 6.24016 96.9176 6.24016C96.5069 6.24016 96.1372 6.33259 95.8085 6.51744C95.4799 6.70229 95.218 6.96416 95.0229 7.30305C94.8381 7.64195 94.7456 8.05273 94.7456 8.53539C94.7456 9.01806 94.8381 9.42884 95.0229 9.76773C95.218 10.1066 95.4799 10.3685 95.8085 10.5533C96.1372 10.7382 96.5069 10.8306 96.9176 10.8306C97.2976 10.8306 97.6468 10.7433 97.9651 10.5688C98.2938 10.3839 98.5659 10.0912 98.7816 9.69071L100.645 10.7074C100.337 11.3749 99.8599 11.8935 99.2129 12.2632C98.5659 12.6227 97.806 12.8024 96.933 12.8024Z" fill="white"/>
<path d="M86.7774 12.8024C85.8943 12.8024 85.1086 12.6175 84.4206 12.2478C83.7428 11.8781 83.2036 11.3749 82.8031 10.7382C82.4129 10.0912 82.2178 9.35695 82.2178 8.53539C82.2178 7.70356 82.4129 6.9693 82.8031 6.33259C83.2036 5.68561 83.7428 5.1824 84.4206 4.82297C85.1086 4.45327 85.8943 4.26842 86.7774 4.26842C87.6503 4.26842 88.4308 4.45327 89.1189 4.82297C89.8069 5.1824 90.3461 5.68047 90.7363 6.31718C91.1266 6.95389 91.3217 7.69329 91.3217 8.53539C91.3217 9.35695 91.1266 10.0912 90.7363 10.7382C90.3461 11.3749 89.8069 11.8781 89.1189 12.2478C88.4308 12.6175 87.6503 12.8024 86.7774 12.8024ZM86.7774 10.8306C87.1779 10.8306 87.5374 10.7382 87.8557 10.5533C88.1741 10.3685 88.4257 10.1066 88.6105 9.76773C88.7954 9.41857 88.8878 9.00779 88.8878 8.53539C88.8878 8.05273 88.7954 7.64195 88.6105 7.30305C88.4257 6.96416 88.1741 6.70229 87.8557 6.51744C87.5374 6.33259 87.1779 6.24016 86.7774 6.24016C86.3769 6.24016 86.0175 6.33259 85.6991 6.51744C85.3808 6.70229 85.124 6.96416 84.9289 7.30305C84.7441 7.64195 84.6516 8.05273 84.6516 8.53539C84.6516 9.00779 84.7441 9.41857 84.9289 9.76773C85.124 10.1066 85.3808 10.3685 85.6991 10.5533C86.0175 10.7382 86.3769 10.8306 86.7774 10.8306Z" fill="white"/>
<path d="M75.9452 15.7908C75.1647 15.7908 74.4099 15.6932 73.6808 15.4981C72.9619 15.3133 72.3612 15.0309 71.8785 14.6509L72.8335 12.9256C73.1827 13.2132 73.6243 13.4391 74.1583 13.6034C74.7026 13.778 75.2366 13.8653 75.7604 13.8653C76.6127 13.8653 77.2289 13.6753 77.6089 13.2953C77.9991 12.9153 78.1942 12.3505 78.1942 11.6008V10.3531L78.3483 8.27352L78.3175 6.17854V4.39165H80.5973V11.2928C80.5973 12.8332 80.1968 13.968 79.3958 14.6971C78.5947 15.4262 77.4446 15.7908 75.9452 15.7908ZM75.5755 12.2786C74.8053 12.2786 74.107 12.1143 73.4805 11.7857C72.8644 11.4468 72.3663 10.9795 71.9863 10.3839C71.6166 9.778 71.4318 9.07454 71.4318 8.27352C71.4318 7.46223 71.6166 6.75877 71.9863 6.16314C72.3663 5.55724 72.8644 5.08998 73.4805 4.76135C74.107 4.43273 74.8053 4.26842 75.5755 4.26842C76.2738 4.26842 76.89 4.41219 77.424 4.69974C77.958 4.97701 78.3739 5.41347 78.6718 6.0091C78.9696 6.59446 79.1185 7.34927 79.1185 8.27352C79.1185 9.18751 78.9696 9.94232 78.6718 10.5379C78.3739 11.1233 77.958 11.5598 77.424 11.8473C76.89 12.1349 76.2738 12.2786 75.5755 12.2786ZM76.053 10.3069C76.4741 10.3069 76.8489 10.2247 77.1775 10.0604C77.5062 9.88583 77.7629 9.6445 77.9478 9.33641C78.1326 9.02833 78.225 8.67403 78.225 8.27352C78.225 7.86274 78.1326 7.50844 77.9478 7.21063C77.7629 6.90254 77.5062 6.66635 77.1775 6.50203C76.8489 6.32745 76.4741 6.24016 76.053 6.24016C75.632 6.24016 75.2571 6.32745 74.9285 6.50203C74.5999 6.66635 74.338 6.90254 74.1429 7.21063C73.9581 7.50844 73.8656 7.86274 73.8656 8.27352C73.8656 8.67403 73.9581 9.02833 74.1429 9.33641C74.338 9.6445 74.5999 9.88583 74.9285 10.0604C75.2571 10.2247 75.632 10.3069 76.053 10.3069Z" fill="white"/>
<path d="M66.443 12.8024C65.4982 12.8024 64.6663 12.6175 63.9475 12.2478C63.2389 11.8781 62.6895 11.3749 62.2992 10.7382C61.909 10.0912 61.7139 9.35695 61.7139 8.53539C61.7139 7.70356 61.9039 6.9693 62.2838 6.33259C62.6741 5.68561 63.2029 5.1824 63.8705 4.82297C64.538 4.45327 65.2928 4.26842 66.1349 4.26842C66.9462 4.26842 67.6753 4.443 68.3223 4.79216C68.9795 5.13106 69.4981 5.62399 69.8781 6.27097C70.2581 6.90768 70.4481 7.67276 70.4481 8.5662C70.4481 8.65863 70.4429 8.76646 70.4327 8.88969C70.4224 9.00266 70.4121 9.11049 70.4019 9.21318H63.6702V7.81139H69.1387L68.2145 8.22731C68.2145 7.79599 68.1272 7.42115 67.9526 7.1028C67.778 6.78444 67.5367 6.53798 67.2286 6.36339C66.9205 6.17854 66.5611 6.08612 66.1503 6.08612C65.7395 6.08612 65.3749 6.17854 65.0566 6.36339C64.7485 6.53798 64.5072 6.78958 64.3326 7.1182C64.158 7.43656 64.0707 7.81653 64.0707 8.25812V8.62782C64.0707 9.07968 64.1683 9.48019 64.3634 9.82935C64.5688 10.1682 64.8512 10.4301 65.2106 10.615C65.5803 10.7895 66.0117 10.8768 66.5046 10.8768C66.9462 10.8768 67.3313 10.8101 67.6599 10.6766C67.9988 10.5431 68.3069 10.3428 68.5842 10.0758L69.8627 11.4622C69.4827 11.8935 69.0052 12.2273 68.4301 12.4635C67.855 12.6894 67.1926 12.8024 66.443 12.8024Z" fill="white"/>
<path d="M50.0586 12.6792V1.89618H52.1228L58.4847 9.65992H57.4834V1.89618H59.9481V12.6792H57.8994L51.522 4.91541H52.5233V12.6792H50.0586Z" fill="white"/>
<path d="M209.888 23C209.368 23 208.899 22.8836 208.481 22.6508C208.07 22.4112 207.745 22.086 207.506 21.6752C207.266 21.2576 207.146 20.7818 207.146 20.2478C207.146 19.7069 207.266 19.2311 207.506 18.8203C207.745 18.4095 208.07 18.0877 208.481 17.855C208.892 17.6222 209.361 17.5058 209.888 17.5058C210.422 17.5058 210.894 17.6222 211.305 17.855C211.723 18.0877 212.048 18.4095 212.281 18.8203C212.52 19.2311 212.64 19.7069 212.64 20.2478C212.64 20.7818 212.52 21.2576 212.281 21.6752C212.048 22.086 211.723 22.4112 211.305 22.6508C210.888 22.8836 210.415 23 209.888 23ZM209.888 22.353C210.278 22.353 210.624 22.2674 210.925 22.0963C211.227 21.9183 211.463 21.6718 211.634 21.3569C211.812 21.0351 211.901 20.6654 211.901 20.2478C211.901 19.8233 211.812 19.4536 211.634 19.1386C211.463 18.8237 211.227 18.5807 210.925 18.4095C210.624 18.2315 210.282 18.1425 209.898 18.1425C209.515 18.1425 209.173 18.2315 208.871 18.4095C208.57 18.5807 208.331 18.8237 208.153 19.1386C207.975 19.4536 207.886 19.8233 207.886 20.2478C207.886 20.6654 207.975 21.0351 208.153 21.3569C208.331 21.6718 208.57 21.9183 208.871 22.0963C209.173 22.2674 209.512 22.353 209.888 22.353Z" fill="white"/>
<path d="M204.932 22.9486V17.5572H205.662V22.9486H204.932ZM205.302 16.3659C205.152 16.3659 205.025 16.3145 204.922 16.2119C204.82 16.1092 204.768 15.9859 204.768 15.8421C204.768 15.6984 204.82 15.5786 204.922 15.4827C205.025 15.38 205.152 15.3287 205.302 15.3287C205.453 15.3287 205.579 15.3766 205.682 15.4724C205.785 15.5683 205.836 15.6881 205.836 15.8319C205.836 15.9825 205.785 16.1092 205.682 16.2119C205.586 16.3145 205.46 16.3659 205.302 16.3659Z" fill="white"/>
<path d="M201.465 23C200.931 23 200.452 22.8836 200.027 22.6508C199.609 22.4112 199.281 22.086 199.041 21.6752C198.802 21.2576 198.682 20.7818 198.682 20.2478C198.682 19.7069 198.802 19.2311 199.041 18.8203C199.281 18.4095 199.609 18.0877 200.027 17.855C200.452 17.6222 200.931 17.5058 201.465 17.5058C201.923 17.5058 202.338 17.5948 202.707 17.7728C203.077 17.9508 203.368 18.2178 203.58 18.5738L203.036 18.9435C202.851 18.6697 202.622 18.4677 202.348 18.3376C202.074 18.2075 201.776 18.1425 201.455 18.1425C201.071 18.1425 200.725 18.2315 200.417 18.4095C200.109 18.5807 199.866 18.8237 199.688 19.1386C199.51 19.4536 199.421 19.8233 199.421 20.2478C199.421 20.6722 199.51 21.0419 199.688 21.3569C199.866 21.6718 200.109 21.9183 200.417 22.0963C200.725 22.2674 201.071 22.353 201.455 22.353C201.776 22.353 202.074 22.288 202.348 22.1579C202.622 22.0278 202.851 21.8293 203.036 21.5623L203.58 21.932C203.368 22.2811 203.077 22.5481 202.707 22.733C202.338 22.911 201.923 23 201.465 23Z" fill="white"/>
<path d="M195.234 22.9486V17.5571H195.933V19.0257L195.861 18.7689C196.012 18.3582 196.265 18.0467 196.621 17.8344C196.977 17.6153 197.418 17.5058 197.946 17.5058V18.2144C197.918 18.2144 197.891 18.2144 197.863 18.2144C197.836 18.2075 197.809 18.2041 197.781 18.2041C197.213 18.2041 196.768 18.3787 196.446 18.7279C196.125 19.0702 195.964 19.5597 195.964 20.1964V22.9486H195.234Z" fill="white"/>
<path d="M191.327 23C190.766 23 190.273 22.8836 189.848 22.6508C189.424 22.4112 189.092 22.086 188.852 21.6752C188.612 21.2576 188.493 20.7818 188.493 20.2478C188.493 19.7138 188.606 19.2414 188.831 18.8306C189.064 18.4198 189.379 18.098 189.776 17.8653C190.18 17.6256 190.632 17.5058 191.132 17.5058C191.638 17.5058 192.087 17.6222 192.477 17.855C192.874 18.0809 193.186 18.4027 193.412 18.8203C193.638 19.2311 193.751 19.7069 193.751 20.2478C193.751 20.282 193.747 20.3197 193.74 20.3607C193.74 20.395 193.74 20.4326 193.74 20.4737H189.047V19.9294H193.35L193.062 20.1451C193.062 19.7548 192.977 19.4091 192.806 19.1079C192.641 18.7998 192.416 18.5602 192.128 18.389C191.84 18.2178 191.508 18.1323 191.132 18.1323C190.762 18.1323 190.43 18.2178 190.136 18.389C189.841 18.5602 189.612 18.7998 189.448 19.1079C189.283 19.4159 189.201 19.7685 189.201 20.1656V20.2786C189.201 20.6894 189.29 21.0522 189.468 21.3672C189.653 21.6752 189.906 21.9183 190.228 22.0963C190.557 22.2674 190.93 22.353 191.347 22.353C191.676 22.353 191.981 22.2948 192.261 22.1784C192.549 22.0621 192.795 21.884 193.001 21.6444L193.412 22.1168C193.172 22.4044 192.871 22.6235 192.508 22.7741C192.152 22.9247 191.758 23 191.327 23ZM190.454 16.7151L191.861 15.4417H192.837L191.173 16.7151H190.454Z" fill="white"/>
<path d="M184.882 17.5058C185.32 17.5058 185.7 17.5914 186.022 17.7625C186.351 17.9268 186.604 18.1802 186.782 18.5225C186.967 18.8648 187.059 19.2961 187.059 19.8164V22.9486H186.33V19.8883C186.33 19.3201 186.193 18.8922 185.92 18.6046C185.653 18.3102 185.273 18.163 184.78 18.163C184.41 18.163 184.088 18.2418 183.814 18.3992C183.547 18.5499 183.338 18.7724 183.188 19.0668C183.044 19.3543 182.972 19.7035 182.972 20.1143V22.9486H182.243V19.8883C182.243 19.3201 182.106 18.8922 181.832 18.6046C181.558 18.3102 181.175 18.163 180.682 18.163C180.319 18.163 180.001 18.2418 179.727 18.3992C179.453 18.5499 179.241 18.7724 179.09 19.0668C178.947 19.3543 178.875 19.7035 178.875 20.1143V22.9486H178.146V17.5571H178.844V19.0154L178.731 18.7587C178.895 18.3684 179.159 18.0638 179.522 17.8447C179.891 17.6188 180.326 17.5058 180.826 17.5058C181.353 17.5058 181.801 17.6393 182.171 17.9063C182.541 18.1665 182.78 18.5601 182.89 19.0873L182.602 18.9743C182.76 18.5362 183.037 18.1836 183.434 17.9166C183.838 17.6427 184.321 17.5058 184.882 17.5058Z" fill="white"/>
<path d="M173.905 23C173.384 23 172.915 22.8836 172.498 22.6508C172.087 22.4112 171.762 22.086 171.522 21.6752C171.283 21.2576 171.163 20.7818 171.163 20.2478C171.163 19.7069 171.283 19.2311 171.522 18.8203C171.762 18.4095 172.087 18.0877 172.498 17.855C172.909 17.6222 173.378 17.5058 173.905 17.5058C174.439 17.5058 174.911 17.6222 175.322 17.855C175.739 18.0877 176.065 18.4095 176.297 18.8203C176.537 19.2311 176.657 19.7069 176.657 20.2478C176.657 20.7818 176.537 21.2576 176.297 21.6752C176.065 22.086 175.739 22.4112 175.322 22.6508C174.904 22.8836 174.432 23 173.905 23ZM173.905 22.353C174.295 22.353 174.641 22.2674 174.942 22.0963C175.243 21.9183 175.479 21.6718 175.65 21.3569C175.828 21.0351 175.917 20.6654 175.917 20.2478C175.917 19.8233 175.828 19.4536 175.65 19.1386C175.479 18.8237 175.243 18.5807 174.942 18.4095C174.641 18.2315 174.298 18.1425 173.915 18.1425C173.532 18.1425 173.189 18.2315 172.888 18.4095C172.587 18.5807 172.347 18.8237 172.169 19.1386C171.991 19.4536 171.902 19.8233 171.902 20.2478C171.902 20.6654 171.991 21.0351 172.169 21.3569C172.347 21.6718 172.587 21.9183 172.888 22.0963C173.189 22.2674 173.528 22.353 173.905 22.353Z" fill="white"/>
<path d="M168.249 23C167.715 23 167.236 22.8836 166.812 22.6508C166.394 22.4112 166.065 22.086 165.826 21.6752C165.586 21.2576 165.466 20.7818 165.466 20.2478C165.466 19.7069 165.586 19.2311 165.826 18.8203C166.065 18.4095 166.394 18.0877 166.812 17.855C167.236 17.6222 167.715 17.5058 168.249 17.5058C168.708 17.5058 169.122 17.5948 169.492 17.7728C169.862 17.9508 170.153 18.2178 170.365 18.5738L169.821 18.9435C169.636 18.6697 169.406 18.4677 169.133 18.3376C168.859 18.2075 168.561 18.1425 168.239 18.1425C167.856 18.1425 167.51 18.2315 167.202 18.4095C166.894 18.5807 166.651 18.8237 166.473 19.1386C166.295 19.4536 166.206 19.8233 166.206 20.2478C166.206 20.6722 166.295 21.0419 166.473 21.3569C166.651 21.6718 166.894 21.9183 167.202 22.0963C167.51 22.2674 167.856 22.353 168.239 22.353C168.561 22.353 168.859 22.288 169.133 22.1579C169.406 22.0278 169.636 21.8293 169.821 21.5623L170.365 21.932C170.153 22.2811 169.862 22.5481 169.492 22.733C169.122 22.911 168.708 23 168.249 23Z" fill="white"/>
<path d="M159.082 23C158.562 23 158.093 22.8836 157.675 22.6508C157.264 22.4112 156.939 22.086 156.7 21.6752C156.46 21.2576 156.34 20.7818 156.34 20.2478C156.34 19.7069 156.46 19.2311 156.7 18.8203C156.939 18.4095 157.264 18.0877 157.675 17.855C158.086 17.6222 158.555 17.5058 159.082 17.5058C159.616 17.5058 160.089 17.6222 160.499 17.855C160.917 18.0877 161.242 18.4095 161.475 18.8203C161.715 19.2311 161.834 19.7069 161.834 20.2478C161.834 20.7818 161.715 21.2576 161.475 21.6752C161.242 22.086 160.917 22.4112 160.499 22.6508C160.082 22.8836 159.609 23 159.082 23ZM159.082 22.353C159.472 22.353 159.818 22.2674 160.119 22.0963C160.421 21.9183 160.657 21.6718 160.828 21.3569C161.006 21.0351 161.095 20.6654 161.095 20.2478C161.095 19.8233 161.006 19.4536 160.828 19.1386C160.657 18.8237 160.421 18.5807 160.119 18.4095C159.818 18.2315 159.476 18.1425 159.092 18.1425C158.709 18.1425 158.367 18.2315 158.065 18.4095C157.764 18.5807 157.525 18.8237 157.347 19.1386C157.169 19.4536 157.08 19.8233 157.08 20.2478C157.08 20.6654 157.169 21.0351 157.347 21.3569C157.525 21.6718 157.764 21.9183 158.065 22.0963C158.367 22.2674 158.706 22.353 159.082 22.353Z" fill="white"/>
<path d="M152.071 23C151.557 23 151.095 22.8836 150.684 22.6508C150.28 22.4181 149.962 22.0963 149.729 21.6855C149.497 21.2679 149.38 20.7886 149.38 20.2478C149.38 19.7001 149.497 19.2208 149.729 18.81C149.962 18.3993 150.28 18.0809 150.684 17.855C151.095 17.6222 151.557 17.5058 152.071 17.5058C152.543 17.5058 152.964 17.6119 153.334 17.8242C153.71 18.0364 154.008 18.3479 154.227 18.7587C154.453 19.1626 154.566 19.659 154.566 20.2478C154.566 20.8297 154.457 21.3261 154.238 21.7368C154.019 22.1476 153.721 22.4626 153.344 22.6816C152.974 22.8939 152.55 23 152.071 23ZM152.122 22.353C152.505 22.353 152.848 22.2674 153.149 22.0963C153.457 21.9183 153.697 21.6718 153.868 21.3569C154.046 21.0351 154.135 20.6654 154.135 20.2478C154.135 19.8233 154.046 19.4536 153.868 19.1387C153.697 18.8237 153.457 18.5807 153.149 18.4095C152.848 18.2315 152.505 18.1425 152.122 18.1425C151.746 18.1425 151.407 18.2315 151.105 18.4095C150.804 18.5807 150.565 18.8237 150.387 19.1387C150.209 19.4536 150.12 19.8233 150.12 20.2478C150.12 20.6654 150.209 21.0351 150.387 21.3569C150.565 21.6718 150.804 21.9183 151.105 22.0963C151.407 22.2674 151.746 22.353 152.122 22.353ZM154.155 22.9486V21.3261L154.227 20.2375L154.125 19.1489V15.3287H154.854V22.9486H154.155Z" fill="white"/>
</svg>
