<svg width="93" height="21" viewBox="0 0 93 21" fill="none" xmlns="http://www.w3.org/2000/svg">
<path d="M20.9408 0H37.1541C37.1541 0 37.8684 4.61788 31.4363 6.83258C32.4697 5.47609 32.4366 3.52006 32.4366 3.52006H20.5937C9.38584 3.52006 1.12369 18.644 0 20.599C0 20.599 3.98209 8.8989 12.0817 3.11401C13.7612 1.91292 17.3891 0 20.9408 0Z" fill="#C89633"/>
<path fill-rule="evenodd" clip-rule="evenodd" d="M22.9792 7.99262C22.9591 8.38062 22.8748 9.48646 22.3471 10.465L22.3401 10.466V10.472C27.6305 10.0108 30.1839 8.42172 31.3918 6.84767C29.3692 7.53945 26.6513 7.99262 22.9792 7.99262Z" fill="#C89633"/>
<path d="M15.8866 10.5592C18.0086 10.6073 19.1554 10.6213 19.1554 10.6213C20.3262 10.6434 21.3867 10.5562 22.3659 10.4659C21.5643 12.1723 19.5697 13.9168 14.168 13.8145C7.20008 13.6832 3.35745 17.503 1.39099 19.5543L1.40064 19.5395C3.3706 16.5244 7.39556 10.364 15.8866 10.5592Z" fill="white"/>
<path d="M48.0114 15V3.36364H52.6023C53.4811 3.36364 54.2311 3.52083 54.8523 3.83523C55.4773 4.14583 55.9527 4.58712 56.2784 5.15909C56.608 5.72727 56.7727 6.39583 56.7727 7.16477C56.7727 7.9375 56.6061 8.60227 56.2727 9.15909C55.9394 9.71212 55.4564 10.1364 54.8239 10.4318C54.1951 10.7273 53.4337 10.875 52.5398 10.875H49.4659V8.89773H52.142C52.6117 8.89773 53.0019 8.83333 53.3125 8.70455C53.6231 8.57576 53.8542 8.38258 54.0057 8.125C54.161 7.86742 54.2386 7.54735 54.2386 7.16477C54.2386 6.77841 54.161 6.45265 54.0057 6.1875C53.8542 5.92235 53.6212 5.72159 53.3068 5.58523C52.9962 5.44508 52.6042 5.375 52.1307 5.375H50.4716V15H48.0114ZM54.2955 9.70455L57.1875 15H54.4716L51.642 9.70455H54.2955ZM62.3026 15.1705C61.4048 15.1705 60.6321 14.9886 59.9844 14.625C59.3404 14.2576 58.8442 13.7386 58.4957 13.0682C58.1473 12.3939 57.973 11.5966 57.973 10.6761C57.973 9.77841 58.1473 8.99053 58.4957 8.3125C58.8442 7.63447 59.3348 7.10606 59.9673 6.72727C60.6037 6.34848 61.3499 6.15909 62.206 6.15909C62.7817 6.15909 63.3177 6.25189 63.8139 6.4375C64.3139 6.61932 64.7495 6.89394 65.1207 7.26136C65.4957 7.62879 65.7874 8.09091 65.9957 8.64773C66.2041 9.20076 66.3082 9.84848 66.3082 10.5909V11.2557H58.9389V9.75568H64.0298C64.0298 9.4072 63.9541 9.09848 63.8026 8.82955C63.651 8.56061 63.4408 8.35038 63.1719 8.19886C62.9067 8.04356 62.598 7.96591 62.2457 7.96591C61.8783 7.96591 61.5526 8.05114 61.2685 8.22159C60.9882 8.38826 60.7685 8.61364 60.6094 8.89773C60.4503 9.17803 60.3688 9.49053 60.3651 9.83523V11.2614C60.3651 11.6932 60.4446 12.0663 60.6037 12.3807C60.7666 12.6951 60.9957 12.9375 61.2912 13.108C61.5866 13.2784 61.937 13.3636 62.3423 13.3636C62.6113 13.3636 62.8575 13.3258 63.081 13.25C63.3045 13.1742 63.4957 13.0606 63.6548 12.9091C63.8139 12.7576 63.9351 12.572 64.0185 12.3523L66.2571 12.5C66.1435 13.0379 65.9105 13.5076 65.5582 13.9091C65.2098 14.3068 64.759 14.6174 64.206 14.8409C63.6567 15.0606 63.0223 15.1705 62.3026 15.1705ZM70.3082 9.95455V15H67.8878V6.27273H70.1946V7.8125H70.2969C70.4901 7.30492 70.8139 6.90341 71.2685 6.60795C71.723 6.30871 72.2741 6.15909 72.9219 6.15909C73.5279 6.15909 74.0563 6.29167 74.5071 6.55682C74.9579 6.82197 75.3082 7.20076 75.5582 7.69318C75.8082 8.18182 75.9332 8.76515 75.9332 9.44318V15H73.5128V9.875C73.5166 9.34091 73.3802 8.92424 73.1037 8.625C72.8272 8.32197 72.4465 8.17045 71.9616 8.17045C71.6359 8.17045 71.348 8.24053 71.098 8.38068C70.8518 8.52083 70.6586 8.72538 70.5185 8.99432C70.3821 9.25947 70.312 9.57955 70.3082 9.95455ZM80.3295 15.1648C79.7727 15.1648 79.2765 15.0682 78.8409 14.875C78.4053 14.678 78.0606 14.3883 77.8068 14.0057C77.5568 13.6193 77.4318 13.1383 77.4318 12.5625C77.4318 12.0777 77.5208 11.6705 77.6989 11.3409C77.8769 11.0114 78.1193 10.7462 78.4261 10.5455C78.733 10.3447 79.0814 10.1932 79.4716 10.0909C79.8655 9.98864 80.2784 9.91667 80.7102 9.875C81.2178 9.82197 81.6269 9.77273 81.9375 9.72727C82.2481 9.67803 82.4735 9.60606 82.6136 9.51136C82.7538 9.41667 82.8239 9.27652 82.8239 9.09091V9.05682C82.8239 8.69697 82.7102 8.41856 82.483 8.22159C82.2595 8.02462 81.9413 7.92614 81.5284 7.92614C81.0928 7.92614 80.7462 8.02273 80.4886 8.21591C80.2311 8.4053 80.0606 8.64394 79.9773 8.93182L77.7386 8.75C77.8523 8.2197 78.0758 7.76136 78.4091 7.375C78.7424 6.98485 79.1723 6.68561 79.6989 6.47727C80.2292 6.26515 80.8428 6.15909 81.5398 6.15909C82.0246 6.15909 82.4886 6.21591 82.9318 6.32955C83.3788 6.44318 83.7746 6.61932 84.1193 6.85795C84.4678 7.09659 84.7424 7.40341 84.9432 7.77841C85.1439 8.14962 85.2443 8.5947 85.2443 9.11364V15H82.9489V13.7898H82.8807C82.7405 14.0625 82.553 14.303 82.3182 14.5114C82.0833 14.7159 81.8011 14.8769 81.4716 14.9943C81.142 15.108 80.7614 15.1648 80.3295 15.1648ZM81.0227 13.4943C81.3788 13.4943 81.6932 13.4242 81.9659 13.2841C82.2386 13.1402 82.4527 12.947 82.608 12.7045C82.7633 12.4621 82.8409 12.1875 82.8409 11.8807V10.9545C82.7652 11.0038 82.661 11.0492 82.5284 11.0909C82.3996 11.1288 82.2538 11.1648 82.0909 11.1989C81.928 11.2292 81.7652 11.2576 81.6023 11.2841C81.4394 11.3068 81.2917 11.3277 81.1591 11.3466C80.875 11.3883 80.6269 11.4545 80.4148 11.5455C80.2027 11.6364 80.0379 11.7595 79.9205 11.9148C79.803 12.0663 79.7443 12.2557 79.7443 12.483C79.7443 12.8125 79.8636 13.0644 80.1023 13.2386C80.3447 13.4091 80.6515 13.4943 81.0227 13.4943ZM87.1222 15V6.27273H89.4688V7.79545H89.5597C89.7188 7.25379 89.9858 6.8447 90.3608 6.56818C90.7358 6.28788 91.1676 6.14773 91.6562 6.14773C91.7775 6.14773 91.9081 6.1553 92.0483 6.17045C92.1884 6.18561 92.3116 6.20644 92.4176 6.23295V8.38068C92.304 8.34659 92.1468 8.31629 91.946 8.28977C91.7453 8.26326 91.5616 8.25 91.3949 8.25C91.0388 8.25 90.7206 8.32765 90.4403 8.48295C90.1638 8.63447 89.9441 8.84659 89.7812 9.11932C89.6222 9.39205 89.5426 9.70644 89.5426 10.0625V15H87.1222Z" fill="white"/>
</svg>
